<svg width="78" height="72" viewBox="0 0 78 72" fill="none" xmlns="http://www.w3.org/2000/svg">
<g clip-path="url(#clip0_1380_4)">
<path d="M25.7131 72C28.5534 72 30.856 69.6975 30.856 66.8572C30.856 64.0169 28.5534 61.7144 25.7131 61.7144C22.8728 61.7144 20.5703 64.0169 20.5703 66.8572C20.5703 69.6975 22.8728 72 25.7131 72Z" fill="white"/>
<path d="M61.7131 72C64.5534 72 66.8559 69.6975 66.8559 66.8572C66.8559 64.0169 64.5534 61.7144 61.7131 61.7144C58.8728 61.7144 56.5703 64.0169 56.5703 66.8572C56.5703 69.6975 58.8728 72 61.7131 72Z" fill="white"/>
<path d="M71.9995 12.8576H14.9656L12.857 2.05765C12.7368 1.46809 12.4137 0.939352 11.9438 0.563476C11.474 0.187601 10.8872 -0.0116086 10.2856 0.000523125H0V5.14334H8.17708L17.9999 54.5144C18.1201 55.104 18.4432 55.6327 18.9131 56.0086C19.3829 56.3845 19.9697 56.5837 20.5713 56.5715H66.8567V51.4287H22.6798L20.5713 41.1431H66.8567C67.4511 41.1576 68.0322 40.9657 68.501 40.6C68.9698 40.2343 69.2974 39.7174 69.4281 39.1374L74.5709 15.9947C74.6571 15.6132 74.6551 15.217 74.565 14.8364C74.475 14.4557 74.2993 14.1006 74.0514 13.7981C73.8034 13.4956 73.4897 13.2537 73.1341 13.0907C72.7786 12.9277 72.3905 12.848 71.9995 12.8576ZM64.7995 36.0003H19.5941L15.9942 18.0004H68.7852L64.7995 36.0003Z" fill="white"/>
</g>
<defs>
<clipPath id="clip0_1380_4">
<rect width="77.1423" height="72" fill="white"/>
</clipPath>
</defs>
</svg>
