<svg width="60" height="60" viewBox="0 0 60 60" fill="none" xmlns="http://www.w3.org/2000/svg">
<path fill-rule="evenodd" clip-rule="evenodd" d="M34.1938 16.4466C33.3242 17.0495 32.3432 17.4732 31.308 17.6929C30.2729 17.9127 29.2044 17.924 28.1648 17.7264C27.1253 17.5287 26.1355 17.126 25.2532 16.5417C24.371 15.9574 23.614 15.2032 23.0263 14.3232C22.4387 13.4432 22.0322 12.4549 21.8306 11.4161C21.629 10.3773 21.6363 9.30878 21.8521 8.27283C22.0678 7.23688 22.4878 6.25428 23.0874 5.38238C23.6871 4.51048 24.4543 3.76674 25.3445 3.19455C27.1019 2.03374 29.2474 1.6159 31.3121 2.03237C33.3767 2.44884 35.1925 3.66575 36.3625 5.41708C37.5325 7.16841 37.9616 9.31172 37.5559 11.3785C37.1503 13.4453 35.9429 15.2674 34.1978 16.4466H34.1938ZM31.9824 6.50955C31.5485 6.1974 31.0562 5.97574 30.5349 5.85779C30.0135 5.73983 29.4738 5.72799 28.9478 5.82295C28.4217 5.91792 27.9202 6.11776 27.473 6.41058C27.0258 6.70339 26.6421 7.08319 26.3447 7.52737C26.0474 7.97155 25.8424 8.47102 25.7421 8.99605C25.6418 9.52108 25.6481 10.0609 25.7607 10.5835C25.8733 11.106 26.09 11.6005 26.3977 12.0376C26.7054 12.4747 27.0979 12.8454 27.5518 13.1276C28.4288 13.6604 29.4776 13.8342 30.4796 13.6129C31.4816 13.3917 32.3596 12.7923 32.9307 11.9398C33.5018 11.0872 33.722 10.0472 33.5453 9.0364C33.3687 8.02556 32.8088 7.12186 31.9824 6.51354V6.50955ZM42.3817 6.62908C43.5308 5.85612 44.9135 5.50803 46.2917 5.64476C47.6698 5.78148 48.9572 6.39446 49.932 7.37815C50.6267 8.07839 51.1389 8.9384 51.4238 9.88273C51.7087 10.8271 51.7575 11.8269 51.5659 12.7944C51.3744 13.762 50.9483 14.6678 50.3252 15.4324C49.702 16.197 48.9007 16.7969 47.9917 17.1797C46.8998 17.6362 45.6966 17.7565 44.5361 17.525C43.3755 17.2936 42.3104 16.7211 41.4772 15.8808C40.851 15.2513 40.3716 14.4912 40.0734 13.6549C39.7753 12.8185 39.6657 11.9266 39.7525 11.0429C39.8393 10.1592 40.1203 9.30566 40.5755 8.5433C41.0308 7.78094 41.6489 7.12864 42.3856 6.63307L42.3817 6.62908ZM44.2942 13.0439C44.6682 13.4164 45.175 13.6251 45.7029 13.6239C45.9643 13.6234 46.223 13.5713 46.4643 13.4708C46.7056 13.3703 46.9247 13.2232 47.1091 13.038C47.2936 12.8527 47.4397 12.633 47.5392 12.3913C47.6387 12.1496 47.6897 11.8906 47.6891 11.6292C47.6886 11.3678 47.6365 11.1091 47.536 10.8678C47.4354 10.6265 47.2884 10.4074 47.1031 10.223C46.7321 9.8499 46.2307 9.6356 45.7046 9.62533C45.4419 9.6248 45.1816 9.67636 44.9388 9.77704C44.6961 9.87771 44.4758 10.0255 44.2905 10.2119C44.1053 10.3982 43.9588 10.6195 43.8596 10.8628C43.7603 11.1061 43.7103 11.3667 43.7124 11.6295C43.7137 12.1601 43.9225 12.6692 44.2942 13.0479V13.0439ZM10.6023 47.6203H17.814V51.6246H10.6023C9.33981 51.6132 8.13337 51.1017 7.24744 50.2022C6.3581 49.2994 5.85999 48.0828 5.86088 46.8155V39.6038C5.32443 39.5858 4.79719 39.4594 4.31098 39.232C3.82477 39.0047 3.38968 38.6811 3.03197 38.281C2.65188 37.8959 2.35358 37.438 2.15501 36.9348C1.95644 36.4315 1.8617 35.8933 1.8765 35.3524V26.6585C1.88845 24.7779 2.63353 22.981 3.94838 21.6462C5.25924 20.3274 7.03228 19.5743 8.889 19.5624H16.2203C15.2314 20.74 14.4865 22.1025 14.0288 23.5706H8.889C8.08033 23.5938 7.31091 23.9244 6.73744 24.495C6.17414 25.0742 5.85956 25.8506 5.86088 26.6585V35.5517H9.84525V46.8115C9.83601 46.9201 9.8489 47.0293 9.88315 47.1328C9.91739 47.2362 9.97227 47.3316 10.0445 47.4132C10.2046 47.5369 10.3999 47.6067 10.6023 47.6124V47.6203ZM39.6882 21.6502C39.0363 20.9919 38.2606 20.4689 37.4059 20.1113C36.5512 19.7537 35.6343 19.5685 34.7077 19.5664H24.8265C22.9691 19.5812 21.1929 20.3303 19.8859 21.6502C18.571 22.9849 17.826 24.7819 17.814 26.6625V39.3249C17.8084 40.4121 18.2222 41.4596 18.9695 42.2494C19.3276 42.649 19.7628 42.9722 20.2489 43.1995C20.735 43.4268 21.2621 43.5536 21.7984 43.5722V52.8279C21.7946 53.4597 21.9159 54.0859 22.1553 54.6706C22.3946 55.2552 22.7473 55.7868 23.1929 56.2346C23.9101 56.9039 24.8145 57.3382 25.7828 57.4777H33.7515C34.8722 57.3306 35.899 56.7744 36.6344 55.9161C37.3699 55.0578 37.7622 53.9579 37.7359 52.8279V43.5682C38.2723 43.5503 38.7996 43.4238 39.2858 43.1965C39.772 42.9691 40.2071 42.6456 40.5648 42.2454C40.9446 41.861 41.2427 41.4038 41.4413 40.9012C41.6398 40.3986 41.7347 39.8611 41.7203 39.3209V26.6585C41.723 24.7866 40.9937 22.9878 39.6882 21.6462V21.6502ZM37.7359 39.5201H33.7515V52.8279C33.7477 53.0379 33.6619 53.2381 33.5124 53.3857C33.4445 53.4662 33.3586 53.5297 33.2618 53.5712C33.165 53.6127 33.0598 53.6311 32.9546 53.6248H26.5398C26.3316 53.6151 26.1345 53.528 25.9871 53.3806C25.8397 53.2332 25.7526 53.0361 25.7429 52.8279V39.5201H21.7984V26.6585C21.7984 25.8497 22.1131 25.0728 22.6749 24.495C23.2484 23.9244 24.0178 23.5938 24.8265 23.5706H34.7077C35.3113 23.5813 35.8987 23.7679 36.3977 24.1077C36.8967 24.4474 37.2856 24.9255 37.5167 25.4831C37.6684 25.8561 37.743 26.256 37.7359 26.6585V39.5201ZM48.932 51.6207H41.7203V47.6164H48.8921C49.0945 47.6107 49.2898 47.5409 49.4499 47.4171C49.5302 47.3387 49.5929 47.2442 49.6341 47.1399C49.6753 47.0355 49.694 46.9236 49.689 46.8115V35.5517H53.6734V26.6585C53.6747 25.8506 53.3601 25.0742 52.7968 24.495C52.2233 23.9244 51.4539 23.5938 50.6452 23.5706H45.5054C45.048 22.1025 44.3031 20.7399 43.314 19.5624H50.6452C52.5023 19.5794 54.2776 20.3282 55.5859 21.6462C56.9007 22.981 57.6458 24.7779 57.6578 26.6585V35.3524C57.6578 36.4402 57.2474 37.4841 56.5063 38.273C55.7652 39.0659 54.7531 39.54 53.6734 39.5998V46.8115C53.6734 48.0825 53.1753 49.2978 52.2868 50.1982C51.4009 51.0977 50.1944 51.6092 48.932 51.6207ZM13.8296 5.61705C12.644 5.61568 11.4849 5.96839 10.5011 6.62999C9.51718 7.2916 8.75329 8.23194 8.30728 9.33049C7.85717 10.4287 7.74032 11.635 7.97131 12.7992C8.20229 13.9633 8.77089 15.0337 9.60619 15.8768C10.4412 16.719 11.5083 17.2931 12.6711 17.5258C13.834 17.7586 15.0398 17.6394 16.1346 17.1835C17.2294 16.7277 18.1635 15.9558 18.8175 14.9665C19.4715 13.9772 19.8157 12.8154 19.8062 11.6295C19.8062 10.0357 19.1767 8.50572 18.0531 7.37815C17.4998 6.82086 16.8419 6.3784 16.1171 6.07617C15.3923 5.77395 14.6149 5.61792 13.8296 5.61705ZM13.8296 13.6336C13.5669 13.6342 13.3066 13.5826 13.0638 13.4819C12.8211 13.3812 12.6008 13.2334 12.4155 13.0471C12.2303 12.8607 12.0838 12.6395 11.9846 12.3961C11.8853 12.1528 11.8353 11.8922 11.8374 11.6295C11.8385 11.1003 12.0483 10.593 12.4214 10.2177C12.7944 9.84241 13.3005 9.62953 13.8296 9.62533C14.3571 9.63463 14.8603 9.84913 15.2322 10.2233C15.6042 10.5975 15.8157 11.1019 15.8218 11.6295C15.8208 12.1586 15.6109 12.666 15.2379 13.0413C14.8648 13.4165 14.3588 13.6294 13.8296 13.6336Z" fill="#FF7B47"/>
</svg>
