<svg width="60" height="60" viewBox="0 0 60 60" fill="none" xmlns="http://www.w3.org/2000/svg">
<g clip-path="url(#clip0_1424_2)">
<path d="M55.9039 19.4335L52.1562 25.0703C53.9636 28.6749 54.8484 32.6717 54.7314 36.7024C54.6144 40.7331 53.4993 44.6718 51.4859 48.1656H9.25624C6.63949 43.626 5.55519 38.3641 6.16409 33.1599C6.77299 27.9557 9.04268 23.0862 12.6367 19.2734C16.2307 15.4605 20.9577 12.9073 26.1169 11.9922C31.276 11.077 36.5928 11.8488 41.2789 14.1929L46.9156 10.4453C41.1768 6.7653 34.3696 5.11629 27.5829 5.76202C20.7961 6.40775 14.422 9.3109 9.48016 14.0071C4.53828 18.7033 1.31414 24.9212 0.323466 31.6662C-0.667208 38.4112 0.632824 45.2936 4.01562 51.2124C4.54733 52.1334 5.31081 52.8993 6.23018 53.4338C7.14955 53.9683 8.1928 54.2529 9.25624 54.2593H51.4555C52.5292 54.2636 53.5851 53.984 54.5161 53.449C55.4471 52.9139 56.2201 52.1424 56.757 51.2124C59.5643 46.3494 60.9732 40.8051 60.828 35.1918C60.6828 29.5785 58.9893 24.1145 55.9344 19.4031L55.9039 19.4335ZM26.075 40.2742C26.6409 40.8407 27.313 41.2902 28.0528 41.5969C28.7925 41.9035 29.5855 42.0614 30.3863 42.0614C31.1871 42.0614 31.9801 41.9035 32.7199 41.5969C33.4596 41.2902 34.1317 40.8407 34.6976 40.2742L51.943 14.4062L26.075 31.6515C25.5084 32.2175 25.0589 32.8895 24.7523 33.6293C24.4456 34.3691 24.2878 35.162 24.2878 35.9628C24.2878 36.7637 24.4456 37.5566 24.7523 38.2964C25.0589 39.0362 25.5084 39.7082 26.075 40.2742V40.2742Z" fill="#FF7B47"/>
</g>
<defs>
<clipPath id="clip0_1424_2">
<rect width="60" height="60" fill="white"/>
</clipPath>
</defs>
</svg>
