<svg width="73" height="73" viewBox="0 0 73 73" fill="none" xmlns="http://www.w3.org/2000/svg">
<path fill-rule="evenodd" clip-rule="evenodd" d="M52.2872 47.0793L71.9235 66.7156C72.6137 67.4063 73.0012 68.3428 73.0009 69.3193C73.0005 70.2957 72.6123 71.232 71.9217 71.9221C71.231 72.6123 70.2944 72.9999 69.318 72.9995C68.3416 72.9992 67.4053 72.611 66.7151 71.9203L47.0788 52.284C41.2087 56.8306 33.8271 58.9701 26.4356 58.2674C19.044 57.5647 12.1978 54.0725 7.28962 48.5013C2.38146 42.9301 -0.21996 35.6983 0.0145861 28.2771C0.249132 20.856 3.30202 13.8029 8.5522 8.55269C13.8024 3.30251 20.8555 0.24962 28.2766 0.0150744C35.6978 -0.219472 42.9296 2.38195 48.5008 7.29011C54.072 12.1983 57.5642 19.0445 58.2669 26.4361C58.9696 33.8276 56.8301 41.2092 52.2835 47.0793H52.2872ZM29.2017 51.0978C35.0097 51.0978 40.5799 48.7906 44.6868 44.6837C48.7937 40.5767 51.1009 35.0066 51.1009 29.1985C51.1009 23.3905 48.7937 17.8203 44.6868 13.7134C40.5799 9.60654 35.0097 7.2993 29.2017 7.2993C23.3937 7.2993 17.8235 9.60654 13.7166 13.7134C9.6097 17.8203 7.30246 23.3905 7.30246 29.1985C7.30246 35.0066 9.6097 40.5767 13.7166 44.6837C17.8235 48.7906 23.3937 51.0978 29.2017 51.0978V51.0978Z" fill="white"/>
</svg>
